<svg xmlns="http://www.w3.org/2000/svg" viewBox="0 0 238.85 375.47"><g id="Camada_2" data-name="Camada 2"><g id="Camada_15" data-name="Camada 15"><path d="M234.42,182.7c-7,7.15-14.95,15-15.77,14.33-.64-.55,3.41-5.92,5.89-9.76,2.66-4.13,20.31-31.15,10-53.49-9.1-19.71-34.38-28.22-44.56-25.57-1.63.42-10.76,1.63-22.87,4.66h0a50.05,50.05,0,0,0-13.19,9.23c-4,4-6,6-7.36,7.81-1.53,2.1-2.86,4.35-5.72,5.82a11.59,11.59,0,0,1-4.12,1.22c1.33-1.5,3.27-3.73,5.55-6.49,4.93-6,6.71-8.74,8.59-11,5.72-6.84,13-9.93,17.34-11.77a55.46,55.46,0,0,1,27.39-3.85c21.77,2,36.15,15.59,40.66,20.23.34-5.92,2.95-68.43-44.16-103.37-2-1.49-4-2.86-6.08-4.15-1.66,4.17-1.27,6.62-.55,8.11.37.75,1,1.56,2.21,3.85.73,1.35,1.28,2.48,1.64,3.23-1.56-1.6-2.89-2.82-3.81-3.63-2.18-1.94-3.11-2.51-3.43-3.84-.29-1.16.13-1.86.55-3.59a21.54,21.54,0,0,0,.58-5.85C156.2-1,128.4-.2,117.07.12,105.4.46,76.6,1.3,49.89,19A4.11,4.11,0,0,0,49,20.57c-.63,2,.62,3.46,1.43,6.27a13.38,13.38,0,0,1,.6,5.44c-.12.83-.4,2.11-3.28,6.63-.87,1.37-2.11,3.24-3.7,5.41.37-1.1.94-2.73,1.69-4.7,2.36-6.2,3.35-7.5,3.38-9.84,0-1.75-.51-4.4-3.38-7.65l3.89-2.92A100.72,100.72,0,0,0,32.44,33.67C-1.65,69.54,2.8,116.35,3.6,123.54A56.65,56.65,0,0,1,23.3,108l1.31-.6c.61-7,2.08-26.35,2.08-26.35L29,105.66A58.42,58.42,0,0,1,54.26,103c4.85.48,21.14,2.08,32.17,13.46,1.61,1.66,1.44,1.81,5.36,6.31a231.87,231.87,0,0,0,16.38,17c-10-8.79-18.53-15.59-24.94-20.45-5.76-4.36-8.48-6.19-12.37-7.87-9.82-4.24-18.72-3.91-23.92-3.66s-13.28.72-22.36,5.2c-4.1,2-13.79,6.82-19.83,17.84C-1.74,142.62,0,154.32.87,159.84c1.28,8.44,4.27,14.4,7.05,19.81A89.31,89.31,0,0,0,25.27,203a45,45,0,0,1-6.71-3.2,46,46,0,0,1-11.18-9.18C-1,216.87,2.55,228.46,8,234.08c12.67,13.08,45.37,4.06,50.71,17.74a9.64,9.64,0,0,1,.63,2.6A39.57,39.57,0,0,0,33.18,247a352.31,352.31,0,0,1-3.1,44.53c-1.23,9.19-2.75,17.86-4.46,26-1.42,10.7-.36,18.75,3.16,20a3.66,3.66,0,0,0,2.34,0A119.13,119.13,0,0,0,66.2,363.25c20.86,10,39.1,11.13,52.17,11.8,14.28.74,32.94,1.5,54.78-6.95A113.1,113.1,0,0,0,210,344.72a19,19,0,0,0,3.24-5,21.14,21.14,0,0,0,.55-14.59A157.1,157.1,0,0,1,212.06,245c-4.51-1.27-13.89-3.12-23.31,1.18a29,29,0,0,0-4.56,2.6,12,12,0,0,1,2.16-3.29c2.82-3,6.66-3.83,11.34-4.33,8.74-.93,11,.21,16.57-.34,0,0,8.47-.84,15.16-5C239.69,229.32,241.9,207.36,234.42,182.7ZM86.2,86.25A91.33,91.33,0,0,0,55,81,58.42,58.42,0,0,1,78,81.8a166.45,166.45,0,0,1,26.65,9.83A44.38,44.38,0,0,0,114.27,95a35.16,35.16,0,0,0,11.93.84A33.52,33.52,0,0,0,140,91c3.82-2.41,4.24-3.83,10.7-8.29.73-.5,3.61-2.5,5.6-3.6,3.07-1.69,9.67-4.38,21.21-2.45-9.79-1-16.09,1.16-20.09,3.41a80.69,80.69,0,0,0-10,7.19c-4.34,3.5-6.77,6-11.41,8.13a32,32,0,0,1-6,2,77.11,77.11,0,0,0,8.59-.57,77.42,77.42,0,0,0,14-3,71.75,71.75,0,0,1-18.86,5.73,37.88,37.88,0,0,1-11.5.52c-6-.76-10-3-13.76-4.93C108.55,95.15,103.07,92.36,86.2,86.25ZM101.76,283.1c1.58-1.82,4.42-5.08,8.62-5.34a8.43,8.43,0,0,1,3.5.49c4.55,1.82,5.57,13.92,3.49,29.14a8.58,8.58,0,0,1-1.92,1.92c-2.13,1.53-4,1.29-10.42,1.37-5.43.06-6.92.26-8.78-1a8.41,8.41,0,0,1-2.34-2.33C94.06,305,95.06,290.81,101.76,283.1ZM91.27,302.19c-.54,1.5-1.13,2.91-1.74,4.24-.44.07-9.37,1.43-12.45-3.48-.84-1.34-1.22-3.1-.64-6.69,1.43-8.93,7.31-20.24,12.18-19.51,1.44.22,3.78,1.65,5.77,9.25A54.46,54.46,0,0,1,91.27,302.19Zm15.37-50.77a17.32,17.32,0,0,1-10.71-4.22q-1.87,5.43-3.74,10.85a38.27,38.27,0,0,1-.1-10.75c.72-5.35,2-6,5.51-17.33,1.51-4.89,1.82-6.54,3.35-10.12a52.93,52.93,0,0,1,4.22-8.17c3.56-5.56,5.18-5.58,7.77-10.42a39.86,39.86,0,0,0,3-7.48,56.06,56.06,0,0,0,2.11-9.69l1,8.73v53.76A17.59,17.59,0,0,1,106.64,251.42ZM49.83,207.51a78.9,78.9,0,0,1-19-9.78c-4.45-3.19-9.89-7.07-14-13.1-8.9-13-11.2-35.21-.1-45.13,5-4.5,11.41-5.21,15.86-5.7,11.32-1.26,20.4,3.14,25.55,5.72,6.19,3.09,6.43,4.59,16.52,10.8,6.16,3.79,11.44,6.53,15,8.29a22.29,22.29,0,0,0,10-.22c10.54-2.73,15.17-12.57,15.89-14.16A21.42,21.42,0,0,1,109,156.68a21,21,0,0,1-9.39,4.95A53.06,53.06,0,0,1,98.76,185c-1.24,4.59-3.4,12.2-10,19.07a27.76,27.76,0,0,1-8.9,6.73C70.51,215,60.94,211.5,49.83,207.51Zm16.57,62c3.79,0,7.23,8.82,8.39,13.48a28.89,28.89,0,0,1,.82,7.82q-3,4.05-6.1,8.09c-7.29,1.57-10.23-.77-11-1.49C51.38,290.86,60.47,269.47,66.4,269.51Zm-15.88-5.7c1.93.14,4.22,3.12,6.35,13.93a24.13,24.13,0,0,0-2.09,7,23.5,23.5,0,0,0-.22,4.52c-4.6,2.08-10.17,3.79-12.85,1.41C36,285.56,45,263.4,50.52,263.81Zm4.7,44.76c-.13,1.24-.24,2.84-.27,4.73-1.26,3.18-3.41,5.3-5.37,5.14-1.64-.14-2.68-1.85-4.16-4.27a24.48,24.48,0,0,1-2.93-7.79c-.93-4.4-1.39-6.6-.2-8.4,1.7-2.54,5.42-3,7.78-2.62a10.17,10.17,0,0,1,7,4.85,25.49,25.49,0,0,0-.9,2.7A31.9,31.9,0,0,0,55.22,308.57Zm9.45,16.3c-4-.44-6-7-7.19-11-1-3.19-1.94-6.61-.14-9.58a7.93,7.93,0,0,1,2.84-2.7l10.79.5,5.81,5.61a22.85,22.85,0,0,1-5.88,13.48C69.2,323,67.13,325.14,64.67,324.87Zm50.37,8a9,9,0,0,1-2.7.87c-3.52.47-6.38-1.62-7.83-2.69-6.69-4.92-7.62-16.64-7.7-17.81A21.62,21.62,0,0,1,94.21,324c-1.24,2.27-3.82,6.95-7.37,6.89-2.68-.05-4.53-2.77-6.61-5.83-1.45-2.14-4.14-6.1-3.52-11.29a13.75,13.75,0,0,1,1.55-4.87H90.84a9.27,9.27,0,0,0,6,4.32,65.29,65.29,0,0,0,10.89.78A64.61,64.61,0,0,0,119,312.9C120.11,322.86,118.68,330.94,115,332.89Zm5.57-139.7.89-3.54c2.92,11.06,7.36,17.09,11,20.58,2.33,2.22,6.69,5.66,8.61,11.71.68,2.12.48,2.75,1.55,5.85,1.78,5.21,3.14,5.78,3.86,9.77.39,2.15.19,3,.92,5.28a17.89,17.89,0,0,0,2.19,4.48l-3.89-5.8c.42,1.56,1,3.26,1.63,5,.51,1.33,1,2.56,1.58,3.71a17.6,17.6,0,0,1,.94,1.92c-.32-.6-.63-1.25-.94-1.92a17.11,17.11,0,0,0-2.11-2.94,16.77,16.77,0,0,0-1.57-1.51,17.18,17.18,0,0,1-8.13,5c-7.81,2.11-14.23-2.4-15.16-3.07Zm26,95.08c2-8.88,4.32-11.27,6.23-11.49,5.82-.67,16.35,17.92,10.62,26.51a9.3,9.3,0,0,1-3.15,2.9H149.91a69.55,69.55,0,0,0-1.43-10.83A71.83,71.83,0,0,0,146.56,288.27Zm.14,19.85a6.8,6.8,0,0,1-2.75,2.61H128.53a5.9,5.9,0,0,1-3-.94c-2.22-1.51-2.49-4.29-2.74-14.44-.2-8.08-.14-10.86,1.56-14.14,1.51-2.91,2.93-3.55,3.44-3.74,3.07-1.13,6.6,1.4,8.59,2.82a22.72,22.72,0,0,1,4.94,5h0a41.89,41.89,0,0,1,6,18.8A7.1,7.1,0,0,1,146.7,308.12Zm-7.26,20.69a13.37,13.37,0,0,1-5.35,4.43c-1.13.49-3.88,1.67-6.51.54a6.6,6.6,0,0,1-2.7-2.27c-3.67-4.9-2.53-16.89-2.39-18.25a105.75,105.75,0,0,0,11.72.37c3.65-.08,7-.36,10.12-.73C144.29,315.93,143.81,323.09,139.44,328.81Zm24.62-10.67a17.28,17.28,0,0,1-4.12,9.19c-1.62,1.76-3.32,3.61-5.49,3.48-2.68-.15-4.62-3.21-7.18-7.25a13.35,13.35,0,0,1-1.72-3.35,12.33,12.33,0,0,1,.09-7.31l4.1-4,11.95-1.15a10.88,10.88,0,0,1,2.27,3.89A12.46,12.46,0,0,1,164.06,318.14Zm20.49-5.7a19.93,19.93,0,0,1-3.65,7.88c-1.83,2.3-3.21,4-5.25,4.22-4,.34-7.29-5.61-8.39-7.6a23.21,23.21,0,0,1-2.82-10.29,11.71,11.71,0,0,1,4-3.56,14.32,14.32,0,0,1,5.48-1.37,32.13,32.13,0,0,1,8.33.22,9.94,9.94,0,0,1,2.89,5.34A11.42,11.42,0,0,1,184.55,312.44ZM195,314.33c-1.09,1.82-2.08,2.9-3.39,3.05-2.66.29-4.79-3.43-4.91-3.65v-9.06s-2.8-4.24-3-4.4a16.34,16.34,0,0,1,4.83-2.55c1.6-.52,6.71-2.19,9.31,0C201.72,301.07,197,310.92,195,314.33Zm-8.89-43.59c.87-2.73,2.3-7.23,4.7-7.53,2.12-.25,4,2.88,6,6.07,2.48,4.06,6,9.81,4,15.72a9.5,9.5,0,0,1-3.44,5c-4,2.89-9.18,1-9.8.81q-1.32-6.81-2.63-13.63A26.13,26.13,0,0,1,186.07,270.74Zm.09,20.31a9.62,9.62,0,0,1-2.91,5.83c-3.77,3.44-10.84,3.29-17-1a32.51,32.51,0,0,1,.66-13.82c.49-1.8,3.2-11.71,7.24-12C179.77,269.54,185.26,288,186.16,291.05Zm27.65-101.82c-13.82,17.17-32.94,20.89-37.35,21.63-6.93,1.16-13.91,2.34-21.22-1.29-8.68-4.31-12.29-12.65-14.67-18.14a53.08,53.08,0,0,1-3.29-30,14.59,14.59,0,0,1-6.16-1.65c-8.15-4.36-8.61-15.33-8.63-16.19a22,22,0,0,0,8.64,12c8.76,5.84,18.58,2.47,19.8,2,3.86-1.4,4.84-3,11-7.39a109.47,109.47,0,0,1,14.68-8.8c1.48-1,20.9-14,37.4-5.86,1.85.92,7.75,3.84,10.92,10.27,3.64,7.38,1.48,14.92-.75,22.71A55.85,55.85,0,0,1,213.81,189.23Z" style="fill:#070202"/></g></g></svg>