<svg xmlns="http://www.w3.org/2000/svg" viewBox="0 0 192.6 429.55"><g id="Camada_2" data-name="Camada 2"><g id="Camada_12" data-name="Camada 12"><path d="M24.75,129.24H58.4c4.77-4.86,7.23-13.16,6.17-27.18C61.37,75.13,79,99.67,94,101.46c8.6,1.59,15.78,17.9,16.64,27.78h59.75c1.16-3.4.08-8.31-4.15-15.34C157.61,99,142.69,91.76,131.79,82.38c-15-25,7.84-64.91-23.1-82.38,3.94,34.86-17.83,44.57-24,67.69-16.26,6.62-35-14.52-30.24-31.61C-4.67,72.22,52.77,105.24,24.75,129.24Z" style="fill:#070202"/><path d="M63.7,129.24h39.81c1-2.51.77-6.13-1.15-11.29-1.81-13.65-22.44-14.61-32.19-22.6C70.29,106.85,71.4,119.35,63.7,129.24Z" style="fill:#070202"/><path d="M32.09,349.86c4,4.09,27.67,27.45,65.18,27,36.11-.45,58.7-22.64,63-27-1.11,40.82-2.58,70.71-3.54,73.84a10.57,10.57,0,0,1-2.64,4.4,8.64,8.64,0,0,1-2.19,1.45H42.05a8.63,8.63,0,0,1-2.39-1.9,10.39,10.39,0,0,1-2-4.41C37,420,34.73,390.36,32.09,349.86Z" style="fill:#070202"/><path d="M8.36,182.15,30,333.16c1.16,1.89,24,37.49,67,37.08,42.08-.39,64.19-34.87,65.55-37.08q11.26-78.3,22.52-156.59a91.84,91.84,0,0,1-21.42,2.74,55.7,55.7,0,0,1-14-1.24c-6-1.38-6.11-2.59-10.94-3.64a38.31,38.31,0,0,0-19.17,1.06c-6.92,2.35-8.86,5.59-15.37,5.6a27.76,27.76,0,0,1-6.43-.87c-4.91-1.15-7-2.77-11.37-4.53a55.39,55.39,0,0,0-10.94-3c-11.38-2.31-21.09-1.08-29.17,0a158.14,158.14,0,0,0-18,3.67C20.08,178.41,13.25,180.52,8.36,182.15Z" style="fill:#070202"/><path d="M6.87,138.29H186.34a8.27,8.27,0,0,1,5.16,2.82c2,2.63,1.15,6.15-1.42,16.1-1.45,5.57-2.64,10.06-3.4,12.9a56.8,56.8,0,0,1-21.81,2.8,44.66,44.66,0,0,1-13.32-2.59c-3.36-1.27-4.52-2.23-8.3-3.29a38.72,38.72,0,0,0-10.21-1.4c-5,0-8.62,1.05-14.35,2.78-8.76,2.65-10.89,4.62-16,4.1a22.53,22.53,0,0,1-6.45-1.85,111.14,111.14,0,0,0-24.71-5.72,88.83,88.83,0,0,0-22.17.53,149.08,149.08,0,0,0-16.08,3.29c-6.46,1.55-15.19,3.8-25.58,6.91-.57-1.8-1.39-4.46-2.37-7.7-5.85-19.45-6.3-23.84-4-26.71C2.11,140.24,3.67,138.91,6.87,138.29Z" style="fill:#070202"/></g></g></svg>