<?xml version="1.0" standalone="no"?>
<!DOCTYPE svg PUBLIC "-//W3C//DTD SVG 20010904//EN"
 "http://www.w3.org/TR/2001/REC-SVG-20010904/DTD/svg10.dtd">
<svg version="1.0" xmlns="http://www.w3.org/2000/svg"
 width="243.000000pt" height="203.000000pt" viewBox="0 0 243.000000 203.000000"
 preserveAspectRatio="xMidYMid meet">

<g transform="translate(0.000000,203.000000) scale(0.100000,-0.100000)"
fill="#000000" stroke="none">
<path d="M2377 2008 c-8 -13 -18 -57 -22 -98 -8 -96 -18 -139 -61 -277 -39
-124 -76 -177 -159 -230 -52 -33 -61 -48 -41 -77 12 -19 156 -126 169 -126 2
0 7 30 10 68 3 37 22 112 41 168 19 55 37 122 41 150 4 27 20 107 37 177 41
182 32 321 -15 245z"/>
<path d="M1955 1338 c-36 -19 -45 -40 -45 -109 0 -50 6 -80 25 -121 33 -71 33
-135 -3 -235 -38 -109 -89 -182 -207 -298 -148 -146 -299 -232 -454 -256 -53
-8 -76 -8 -84 0 -8 8 -7 11 4 11 23 0 212 94 286 142 248 161 387 365 417 613
3 27 2 45 -2 40 -5 -6 -71 -89 -147 -185 -159 -200 -324 -370 -408 -419 -85
-50 -178 -80 -286 -92 -83 -10 -134 -8 -382 15 -355 32 -420 33 -496 5 -98
-37 -175 -134 -172 -220 0 -22 1 -23 8 -4 5 11 18 29 30 40 50 44 203 11 486
-107 319 -133 398 -151 640 -151 299 0 538 69 767 222 179 120 359 372 413
576 21 84 20 203 -4 265 -24 63 -66 120 -89 120 -36 0 -126 52 -181 105 -58
55 -79 63 -116 43z"/>
</g>
</svg>
